<svg width="466" height="84" viewBox="0 0 466 84" fill="none" xmlns="http://www.w3.org/2000/svg">
<g clip-path="url(#clip0_1351_16)">
<path fill-rule="evenodd" clip-rule="evenodd" d="M41.9195 0C18.768 0 0 18.768 0 41.9195C0 65.071 18.768 83.839 41.9195 83.839C65.071 83.839 83.839 65.071 83.839 41.9195C83.839 18.768 65.071 0 41.9195 0ZM35.0425 26.8545L25.046 47.7374C24.5705 48.7302 24.4412 49.8541 24.6786 50.9293L25.9421 56.6566L35.0425 26.8545ZM40.4462 69.2655L28.9591 62.6768C28.5198 62.4247 28.1795 62.0322 27.9937 61.5632C27.8078 61.0942 27.7874 60.5765 27.9357 60.0945L30.6594 51.2532L40.4462 59.4664V69.2655ZM32.9786 49.4321L40.4444 55.6741L40.4462 51.1416L33.3288 42.2467L32.0611 46.3449C31.8915 46.8918 31.888 47.476 32.0511 48.0248C32.2142 48.5737 32.5367 49.0631 32.9786 49.4321ZM35.056 36.8235L41.92 14.4096L48.7838 36.8235C48.9758 37.45 49.0127 38.1137 48.8913 38.7575C48.7699 39.4013 48.4939 40.0061 48.087 40.5197L41.9205 48.3054L35.7539 40.5193C35.3469 40.0058 35.0708 39.4012 34.9492 38.7574C34.8276 38.1136 34.8642 37.45 35.056 36.8235ZM51.6152 46.1815L50.3475 42.0828L43.2302 50.9788V55.5102L50.698 49.2691C51.1398 48.9 51.4622 48.4106 51.6253 47.8616C51.7884 47.3127 51.7849 46.7285 51.6152 46.1815ZM43.2302 69.2655V59.4662L53.0171 51.2532L55.7405 60.0943C55.889 60.5762 55.8687 61.094 55.6829 61.563C55.4971 62.032 55.1568 62.4246 54.7175 62.6767L43.2302 69.2655ZM48.6337 26.9972L57.7346 56.9127L58.9981 51.1622C59.2348 50.0834 59.1054 48.9559 58.6307 47.9596L48.6337 26.9972Z" fill="#5956E9"/>
</g>
<path d="M113.858 58.3218H120.064C124.829 58.3218 128.496 57.0144 131.066 54.3997C133.699 51.785 135.016 48.2115 135.016 43.6794C135.016 39.0891 133.699 35.4866 131.066 32.8719C128.496 30.2571 124.829 28.9498 120.064 28.9498H113.858V58.3218ZM99 70.4366V16.9221H120.816C129.844 16.9221 136.959 19.3334 142.163 24.1561C147.366 28.9788 149.968 35.4866 149.968 43.6794C149.968 51.8721 147.366 58.3799 142.163 63.2026C136.959 68.0253 129.844 70.4366 120.816 70.4366H99Z" fill="white"/>
<path d="M180.184 56.753H193.819C193.067 61.2851 190.935 64.8586 187.425 67.4733C183.914 70.0299 179.432 71.3082 173.978 71.3082C167.52 71.3082 162.317 69.4198 158.368 65.643C154.418 61.8662 152.443 56.9273 152.443 50.8263C152.443 44.7834 154.449 39.8735 158.462 36.0967C162.474 32.2618 167.552 30.3443 173.696 30.3443C180.09 30.3443 185.074 32.1455 188.647 35.748C192.221 39.3505 194.007 44.1151 194.007 50.0418V53.441H166.643C167.144 58.2637 169.589 60.675 173.978 60.675C177.3 60.675 179.369 59.3677 180.184 56.753ZM173.696 40.9775C170.122 40.9775 167.865 42.8659 166.925 46.6427H179.714C179.588 44.9577 178.993 43.5922 177.927 42.5463C176.861 41.5004 175.451 40.9775 173.696 40.9775Z" fill="white"/>
<path d="M225.09 14.0459V25.202C224.024 24.6791 222.864 24.4176 221.611 24.4176C218.1 24.4176 216.345 25.9864 216.345 29.1241V31.2159H224.526V41.8491H216.345V70.4366H201.769V41.8491H195.469V31.2159H201.769V28.3397C201.769 23.6332 203.211 19.9145 206.095 17.1836C209.041 14.3945 213.085 13 218.225 13C220.733 13 223.021 13.3486 225.09 14.0459Z" fill="white"/>
<path d="M243.323 31.2159V70.4366H228.559V31.2159H243.323ZM244.357 20.5827C244.357 22.7326 243.542 24.5048 241.912 25.8993C240.282 27.2357 238.307 27.9039 235.988 27.9039C233.668 27.9039 231.693 27.2357 230.064 25.8993C228.434 24.5048 227.619 22.7326 227.619 20.5827C227.619 18.3747 228.434 16.6025 230.064 15.2661C231.693 13.8716 233.668 13.1743 235.988 13.1743C238.307 13.1743 240.282 13.8716 241.912 15.2661C243.542 16.6025 244.357 18.3747 244.357 20.5827Z" fill="white"/>
<path d="M265.157 58.3218H271.363C276.128 58.3218 279.795 57.0144 282.365 54.3997C284.998 51.785 286.315 48.2115 286.315 43.6794C286.315 39.0891 284.998 35.4866 282.365 32.8719C279.795 30.2571 276.128 28.9498 271.363 28.9498H265.157V58.3218ZM250.299 70.4366V16.9221H272.115C281.143 16.9221 288.258 19.3334 293.462 24.1561C298.665 28.9788 301.267 35.4866 301.267 43.6794C301.267 51.8721 298.665 58.3799 293.462 63.2026C288.258 68.0253 281.143 70.4366 272.115 70.4366H250.299Z" fill="white"/>
<path d="M340.981 36.0967C344.993 39.8735 346.999 44.7834 346.999 50.8263C346.999 56.8692 344.993 61.8081 340.981 65.643C337.031 69.4198 331.828 71.3082 325.371 71.3082C318.976 71.3082 313.773 69.4198 309.761 65.643C305.748 61.8081 303.742 56.8692 303.742 50.8263C303.742 44.7834 305.748 39.8735 309.761 36.0967C313.773 32.2618 318.976 30.3443 325.371 30.3443C331.828 30.3443 337.031 32.2618 340.981 36.0967ZM330.637 57.5374C331.89 55.8523 332.517 53.6153 332.517 50.8263C332.517 48.0372 331.89 45.8002 330.637 44.1151C329.383 42.4301 327.627 41.5876 325.371 41.5876C323.176 41.5876 321.452 42.4301 320.199 44.1151C318.945 45.8002 318.318 48.0372 318.318 50.8263C318.318 53.5572 318.945 55.7652 320.199 57.4502C321.452 59.1353 323.176 59.9778 325.371 59.9778C327.627 59.9778 329.383 59.1643 330.637 57.5374Z" fill="white"/>
<path d="M366.095 13.7844V70.4366H351.331V13.7844H366.095Z" fill="white"/>
<path d="M387.459 13.7844V70.4366H372.695V13.7844H387.459Z" fill="white"/>
<path d="M431.767 70.4366H417.568V68.432C416.816 69.1293 415.468 69.7684 413.524 70.3495C411.581 70.8724 409.543 71.1339 407.412 71.1339C403.024 71.1339 399.356 70.0299 396.41 67.8219C393.463 65.5558 391.99 62.4472 391.99 58.4961C391.99 54.7774 393.526 51.785 396.598 49.5189C399.67 47.1947 403.556 46.0326 408.258 46.0326C412.27 46.0326 415.374 46.7589 417.568 48.2115V45.684C417.568 44.3476 417.129 43.2436 416.251 42.372C415.374 41.4423 414.089 40.9775 412.396 40.9775C409.826 40.9775 408.164 41.9362 407.412 43.8537H393.495C394.122 39.9607 396.159 36.7358 399.607 34.1792C403.118 31.5645 407.537 30.2571 412.866 30.2571C418.884 30.2571 423.523 31.6807 426.783 34.5278C430.106 37.3169 431.767 41.268 431.767 46.3812V70.4366ZM417.568 59.4548V57.1887C416.565 55.3875 414.496 54.4869 411.361 54.4869C409.732 54.4869 408.352 54.8064 407.224 55.4456C406.095 56.0847 405.531 57.0144 405.531 58.2346C405.531 59.5129 406.095 60.4717 407.224 61.1108C408.352 61.75 409.732 62.0695 411.361 62.0695C414.433 62.0695 416.502 61.198 417.568 59.4548Z" fill="white"/>
<path d="M465.953 31.0416V44.2023C464.26 43.3888 462.223 42.9821 459.841 42.9821C455.64 42.9821 453.133 44.4638 452.318 47.4271V70.4366H437.554V31.2159H452.318V34.7022C454.637 31.7969 457.835 30.3443 461.91 30.3443C463.728 30.3443 465.075 30.5767 465.953 31.0416Z" fill="white"/>
<defs>
<clipPath id="clip0_1351_16">
<rect width="83.839" height="83.839" fill="white"/>
</clipPath>
</defs>
</svg>
