<svg width="2669" height="520" viewBox="0 0 2669 520" fill="none" xmlns="http://www.w3.org/2000/svg">
<g clip-path="url(#clip0_1519_37)">
<path d="M148.576 520C66.5195 520 0 453.48 0 371.424V148.576C0 66.5196 66.5195 0 148.576 0H371.424C453.48 0 520 66.5195 520 148.576V371.424C520 453.48 453.48 520 371.424 520H148.576Z" fill="#FF370C"/>
<path d="M229.656 250.69L184.191 223.781L144.127 247.481L140.049 245.117C121.753 234.421 110.676 215.168 110.566 193.608C110.456 172.047 121.202 152.626 139.388 141.705L144.127 138.834L229.711 190.624V250.746L229.656 250.69ZM144.072 151.613C129.523 160.845 121.147 176.382 121.257 193.551C121.368 210.665 129.854 225.977 144.072 234.815L184.136 211.115L218.854 231.662V196.873L144.017 151.613H144.072Z" fill="black"/>
<path d="M97.5 322.979V261.675L141.421 236.4L146.712 245.97L108.301 268.093V303.783L178.785 261.732V217.429L189.531 217.429V268.037L97.5 322.979Z" fill="black"/>
<path d="M156.08 374.594C146.05 374.594 136.076 371.948 126.928 366.544C108.522 355.736 97.5 336.371 97.5 314.697V310.25L189.531 255.308V262.288L234.885 289.759L189.531 316.612V364.011L185.618 366.375C176.36 371.892 166.22 374.65 156.08 374.65V374.594ZM108.301 316.555C108.907 333.5 117.78 348.53 132.273 357.03C146.822 365.531 164.071 365.756 178.785 357.65V310.25L213.613 289.647L183.689 271.577L108.301 316.555Z" fill="black"/>
<path d="M229.646 442.542L178.781 412.481L178.781 360.804H189.527L189.527 406.176L218.9 423.515L218.9 340.257L181.482 318.133L186.827 308.619L229.646 333.951L229.646 442.542Z" fill="black"/>
<path d="M252.349 446.762C242.485 446.762 232.62 444.173 223.583 438.937L218.898 436.235L218.898 327.588L224.52 330.91L270.811 303.889V357.705L310.93 382.475V386.809C310.93 408.313 300.073 427.622 281.887 438.43C272.684 443.947 262.544 446.706 252.349 446.706V446.762ZM229.645 429.818C244.414 437.98 261.883 437.699 276.432 429.029C290.76 420.473 299.522 405.499 300.073 388.667L260.009 363.898V322.86L229.645 340.592L229.645 429.818Z" fill="black"/>
<path d="M346.699 415.629L302.888 390.409L308.178 380.783L346.644 402.963L376.072 385.568L305.478 343.46L268.114 365.584L262.714 356.07L305.533 330.738L397.454 385.625L346.699 415.629Z" fill="black"/>
<path d="M386.814 391.993L300.128 340.259V280.25L346.64 307.046L386.759 283.29L390.837 285.654C409.133 296.35 420.209 315.602 420.32 337.163C420.43 358.723 409.684 378.145 391.498 389.066L386.814 391.937V391.993ZM310.929 333.954L386.759 379.214C401.307 369.982 409.684 354.445 409.573 337.276C409.463 320.162 400.977 304.907 386.814 296.012L346.75 319.712L310.929 299.052V333.898V333.954Z" fill="black"/>
<path d="M352.039 313.352H341.293V261.675L433.324 207.971V268.036L389.513 294.381L384.057 284.924L422.523 261.731V226.942L352.039 268.036V313.352Z" fill="black"/>
<path d="M343.939 270.454L294.672 241.069L341.239 214.217V166.817L345.151 164.453C363.447 153.532 385.38 153.419 403.842 164.228C422.248 175.036 433.27 194.401 433.27 216.074V220.578L349.284 269.61L346.86 265.275L343.884 270.454H343.939ZM316.274 241.238L345.923 258.97L422.468 214.273C421.862 197.329 412.99 182.298 398.496 173.798C383.948 165.241 366.644 165.072 351.985 173.178V220.634L316.274 241.238Z" fill="black"/>
<path d="M343.994 222.213L300.128 196.937V88.4023L352.04 118.294V170.028H341.294V124.712L310.874 107.205V190.519L349.285 212.643L343.994 222.213Z" fill="black"/>
<path d="M260.012 226.938V173.177L218.846 148.408V143.961C218.846 122.344 229.812 102.979 248.163 92.1707C266.515 81.3624 288.393 81.3624 306.744 92.1707L310.877 94.5913V193.724H305.697L308.452 198.678L260.012 226.938ZM229.647 142.103L270.758 166.872V207.967L300.076 190.853V101.009C285.362 92.8463 268.058 93.0715 253.509 101.684C239.071 110.185 230.198 125.215 229.647 142.16V142.103Z" fill="black"/>
<path d="M224.208 200.09L133.444 145.147L184.144 115.143L226.964 140.475L221.563 149.988L184.144 127.865L154.716 145.26L224.318 187.368L262.784 165.244L268.074 174.814L224.208 200.09Z" fill="black"/>
</g>
<path d="M2668.27 440.052H2590.6V80.5166H2668.27V440.052Z" fill="black"/>
<path d="M2463.11 155.098H2538.72V440.052H2266.63V219.907H2460.54V155.098H2278.97V80.5166H2463.11V155.098ZM2460.54 365.471V294.489H2344.29V365.471H2460.54Z" fill="black"/>
<path d="M2217.87 156.64H2140.2V81.5439H2217.87V156.64ZM2217.87 440.051H2140.2V188.53H2217.87V440.051Z" fill="black"/>
<path d="M1918.88 80H2112.79V154.582H1996.55V440.05H1918.88V80Z" fill="black"/>
<path d="M1788.81 154.582H1866.48V440.05H1672.56V365.468H1594.9V80H1788.81V154.582H1672.56V365.468H1788.81V154.582Z" fill="black"/>
<path d="M1546.18 222.477H1468.51V80H1546.18V222.477ZM1352.27 222.991H1274.6V80H1352.27V222.991ZM1352.27 222.991H1468.51V298.087H1352.27V440.05H1274.6V298.087H1352.27V222.991ZM1546.18 440.05H1468.51V298.087H1546.18V440.05Z" fill="black"/>
<path d="M1229.15 298.087H1041.41V365.468H1222.47V440.05H1041.41V365.983H963.744V80H1151.48V154.582H1041.41V222.991H1151.48V154.582H1229.15V298.087Z" fill="black"/>
<path d="M717.668 440.05H640V387.154H717.668V440.05ZM717.668 222.477H834.427V186.019H912.095V440.05H834.427V297.573H717.668V332.608H640V80H717.668V222.477ZM912.095 131.473H834.427V80H912.095V131.473Z" fill="black"/>
<defs>
<clipPath id="clip0_1519_37">
<rect width="520" height="520" fill="white"/>
</clipPath>
</defs>
</svg>
