<svg width="183" height="59" viewBox="0 0 183 59" fill="none" xmlns="http://www.w3.org/2000/svg">
<path d="M65.9443 30.6523H71.9691V19.6591H79.011V30.6523H85.0358V3.26709H79.011V14.4559H71.9691V3.26709H65.9443V30.6523Z" fill="url(#paint0_linear_5001_3781)"/>
<path d="M97.7797 31.3565C103.804 31.3565 107.56 27.8356 107.56 21.4196V3.26709H101.496V21.1457C101.496 24.3537 99.9705 26.0751 97.7797 26.0751C95.628 26.0751 94.1413 24.3537 94.1413 21.1457V3.26709H88.0384V21.4196C88.0384 27.7964 91.7549 31.3565 97.7797 31.3565Z" fill="url(#paint1_linear_5001_3781)"/>
<path d="M123.323 16.6467C126.609 15.9425 128.526 13.7908 128.526 10.3873C128.526 5.92737 125.318 3.26709 119.88 3.26709H110.569V30.6523H119.88C125.553 30.6523 128.917 27.8356 128.917 23.0627C128.917 19.4635 126.609 16.9988 123.323 16.6467ZM118.863 7.60961C121.249 7.60961 122.462 8.82238 122.462 11.0914C122.462 13.2823 121.132 14.5733 118.785 14.5733H116.594V7.60961H118.863ZM118.863 26.1142H116.594V18.8376H119.293C121.406 18.8376 122.775 20.2459 122.775 22.3976C122.775 24.9014 121.523 26.1142 118.863 26.1142Z" fill="url(#paint2_linear_5001_3781)"/>
<path d="M143.935 16.6467C147.221 15.9425 149.138 13.7908 149.138 10.3873C149.138 5.92737 145.93 3.26709 140.492 3.26709H131.181V30.6523H140.492C146.165 30.6523 149.53 27.8356 149.53 23.0627C149.53 19.4635 147.221 16.9988 143.935 16.6467ZM139.475 7.60961C141.862 7.60961 143.074 8.82238 143.074 11.0914C143.074 13.2823 141.744 14.5733 139.397 14.5733H137.206V7.60961H139.475ZM139.475 26.1142H137.206V18.8376H139.906C142.018 18.8376 143.387 20.2459 143.387 22.3976C143.387 24.9014 142.136 26.1142 139.475 26.1142Z" fill="url(#paint3_linear_5001_3781)"/>
<path d="M151.794 30.6523H165.447V25.2535H157.818V3.26709H151.794V30.6523Z" fill="url(#paint4_linear_5001_3781)"/>
<path d="M167.974 30.6523H182.488V25.7621H173.999V19.3461H182.488V14.5733H173.999V8.15731H182.488V3.26709H167.974V30.6523Z" fill="url(#paint5_linear_5001_3781)"/>
<path d="M65.3569 55.0987H75.7809V51.5866H69.6839V46.9787H75.7809V43.5508H69.6839V38.9429H75.7809V35.4308H65.3569V55.0987Z" fill="url(#paint6_linear_5001_3781)"/>
<path d="M76.7017 55.0987H81.3939L84.0912 48.3835L86.7605 55.0987H91.4807L86.7605 45.3209L91.4807 35.4308H86.7605L84.0912 42.2865L81.3939 35.4308H76.7017L81.3939 45.3209L76.7017 55.0987Z" fill="url(#paint7_linear_5001_3781)"/>
<path d="M98.78 55.6325C103.472 55.6325 106.029 52.9633 106.254 48.0183H101.73C101.562 50.5189 100.747 51.7833 98.78 51.7833C96.2794 51.7833 95.2398 49.5636 95.2398 45.2648C95.2398 40.9659 96.2794 38.7463 98.78 38.7463C100.747 38.7463 101.562 40.0106 101.73 42.5113H106.254C106.029 37.5662 103.472 34.897 98.78 34.897C93.4697 34.897 90.7162 38.6901 90.7162 45.2648C90.7162 51.8394 93.4697 55.6325 98.78 55.6325Z" fill="url(#paint8_linear_5001_3781)"/>
<path d="M107.847 55.0987H112.174V47.2034H117.231V55.0987H121.558V35.4308H117.231V43.4665H112.174V35.4308H107.847V55.0987Z" fill="url(#paint9_linear_5001_3781)"/>
<path d="M134.139 55.0987H138.606L132.846 35.4308H128.547L122.788 55.0987H127.255L127.957 52.1485H133.436L134.139 55.0987ZM128.744 48.7769L130.683 40.4602L132.65 48.7769H128.744Z" fill="url(#paint10_linear_5001_3781)"/>
<path d="M139.841 55.0987H143.803V42.9889L149.507 55.0987H153.468V35.4308H149.507V47.9621L143.803 35.4308H139.841V55.0987Z" fill="url(#paint11_linear_5001_3781)"/>
<path d="M171.305 44.8433H162.932V48.1868H166.191C166.163 50.6594 165.067 51.9237 163.213 51.9237C160.6 51.9237 159.448 49.8446 159.448 45.0681C159.448 40.713 160.6 38.5777 163.072 38.5777C164.899 38.5777 165.798 39.533 165.938 41.4998H170.321C170.097 37.2852 167.708 34.897 163.072 34.897C157.903 34.897 154.924 38.7744 154.924 45.1524C154.924 51.7833 157.846 55.6325 163.044 55.6325C167.428 55.6325 170.069 53.0476 170.293 48.1868H171.305V44.8433Z" fill="url(#paint12_linear_5001_3781)"/>
<path d="M172.576 55.0987H183V51.5866H176.903V46.9787H183V43.5508H176.903V38.9429H183V35.4308H172.576V55.0987Z" fill="url(#paint13_linear_5001_3781)"/>
<path d="M0 23.5287C0 15.2929 0 11.175 1.6028 8.02931C3.01266 5.2623 5.2623 3.01266 8.02931 1.6028C11.175 0 15.2929 0 23.5287 0H35.2931C43.5289 0 47.6468 0 50.7925 1.6028C53.5595 3.01266 55.8091 5.2623 57.219 8.02931C58.8218 11.175 58.8218 15.2929 58.8218 23.5287V35.2931C58.8218 43.5289 58.8218 47.6468 57.219 50.7925C55.8091 53.5595 53.5595 55.8091 50.7925 57.219C47.6468 58.8218 43.5289 58.8218 35.2931 58.8218H23.5287C15.2929 58.8218 11.175 58.8218 8.02931 57.219C5.2623 55.8091 3.01266 53.5595 1.6028 50.7925C0 47.6468 0 43.5289 0 35.2931V23.5287Z" fill="url(#paint14_linear_5001_3781)"/>
<path d="M33.5122 6.3476V12.2471C37.6067 13.2244 41.217 15.6337 43.691 19.0401C46.1649 22.4465 47.3396 26.6254 47.0029 30.8221C46.6662 35.0189 44.8402 38.9569 41.8547 41.9251C38.8693 44.8933 34.9211 46.696 30.7231 47.0076V42.9962C34.0587 42.6735 37.1589 41.1345 39.433 38.6726C41.707 36.2107 42.9958 32.9979 43.0538 29.6467C43.1117 26.2954 41.9347 23.04 39.7471 20.5009C37.5595 17.9619 34.5143 16.3166 31.1918 15.8789V22.2238C29.7063 21.8563 28.1435 21.9582 26.7183 22.5156C25.2931 23.073 24.0757 24.0585 23.2336 25.3365C22.3915 26.6144 21.966 28.122 22.0158 29.6517C22.0657 31.1815 22.5883 32.6581 23.5118 33.8786L24.8183 32.5718C24.0819 31.4984 23.7441 30.2011 23.8636 28.9048C23.983 27.6085 24.552 26.3948 25.4721 25.474C26.3923 24.5532 27.6054 23.9834 28.9015 23.8632C30.1975 23.7431 31.4947 24.0802 32.5683 24.8161L33.8749 23.5094C33.3549 23.1133 32.7842 22.7887 32.1781 22.5442V19.5085C34.57 20.1773 36.6389 21.6896 38.0025 23.7658C39.3661 25.842 39.9321 28.3417 39.5959 30.8029C39.2597 33.2641 38.044 35.5203 36.1736 37.1546C34.3031 38.7889 31.9044 39.6906 29.4208 39.6932V52.8308C29.862 52.8308 30.2989 52.8188 30.7316 52.7947C36.4621 52.4692 41.8737 50.0502 45.9385 45.9971C50.0034 41.944 52.4386 36.539 52.7817 30.8084C53.1247 25.0779 51.3518 19.4208 47.7995 14.9115C44.2472 10.4022 39.163 7.3547 33.5122 6.3476ZM36.8103 29.411C36.8119 27.711 36.2268 26.0625 35.1538 24.744L33.8537 26.0444C34.6667 27.1182 35.0637 28.45 34.9713 29.7937C34.879 31.1375 34.3035 32.4024 33.3513 33.3549C32.399 34.3073 31.1343 34.8828 29.7908 34.9752C28.4472 35.0676 27.1157 34.6705 26.0421 33.8574L24.7441 35.1556C25.3158 35.6233 25.9551 36.0017 26.6402 36.2778V39.3156C24.2456 38.648 22.174 37.1352 20.809 35.0573C19.4439 32.9794 18.8778 30.4772 19.2155 28.014C19.5533 25.5507 20.772 23.2933 22.6459 21.6597C24.5199 20.0261 26.9222 19.127 29.4081 19.1288V11.7783V5.99121C23.5525 5.98964 17.9087 8.18228 13.5896 12.1368C9.27038 16.0914 6.58921 21.5209 6.07465 27.3549C5.56008 33.1889 7.24947 39.004 10.8097 43.6538C14.37 48.3036 19.5428 51.4506 25.3082 52.4744V46.5685C21.2207 45.5843 17.6189 43.1725 15.1516 39.7676C12.6842 36.3628 11.5136 32.1887 11.8505 27.9971C12.1874 23.8055 14.0097 19.872 16.9891 16.9051C19.9685 13.9382 23.9093 12.1329 28.1016 11.8143V15.8258C24.766 16.1488 21.6659 17.688 19.3921 20.1501C17.1183 22.6122 15.8298 25.825 15.7721 29.1763C15.7144 32.5275 16.8917 35.7828 19.0794 38.3217C21.2672 40.8606 24.3125 42.5056 27.6349 42.9431V36.5981C28.7251 36.8663 29.8619 36.8831 30.9595 36.6473C32.0571 36.4114 33.0867 35.9291 33.9705 35.2368C34.8544 34.5445 35.5693 33.6603 36.0613 32.651C36.5532 31.6417 36.8094 30.5338 36.8103 29.411Z" fill="url(#paint15_linear_5001_3781)"/>
<path d="M32.829 29.4131C32.8296 30.1464 32.5942 30.8605 32.1578 31.4497C31.7214 32.039 31.107 32.4723 30.4055 32.6855C29.704 32.8986 28.9525 32.8805 28.2621 32.6337C27.5717 32.3868 26.9789 31.9244 26.5715 31.3148C26.164 30.7051 25.9634 29.9805 25.9993 29.2481C26.0353 28.5156 26.3058 27.8142 26.771 27.2473C27.2362 26.6805 27.8713 26.2783 28.5826 26.1003C29.2938 25.9223 30.0435 25.9778 30.7208 26.2586C31.1359 26.4312 31.513 26.684 31.8304 27.0025C32.1477 27.321 32.3992 27.699 32.5703 28.1148C32.7422 28.529 32.8309 28.9731 32.8312 29.4216L32.829 29.4131Z" fill="url(#paint16_linear_5001_3781)"/>
<defs>
<linearGradient id="paint0_linear_5001_3781" x1="124.216" y1="3.26709" x2="124.835" y2="44.1526" gradientUnits="userSpaceOnUse">
<stop stop-color="#040515"/>
<stop offset="1"/>
</linearGradient>
<linearGradient id="paint1_linear_5001_3781" x1="124.216" y1="3.26709" x2="124.835" y2="44.1526" gradientUnits="userSpaceOnUse">
<stop stop-color="#040515"/>
<stop offset="1"/>
</linearGradient>
<linearGradient id="paint2_linear_5001_3781" x1="124.216" y1="3.26709" x2="124.835" y2="44.1526" gradientUnits="userSpaceOnUse">
<stop stop-color="#040515"/>
<stop offset="1"/>
</linearGradient>
<linearGradient id="paint3_linear_5001_3781" x1="124.216" y1="3.26709" x2="124.835" y2="44.1526" gradientUnits="userSpaceOnUse">
<stop stop-color="#040515"/>
<stop offset="1"/>
</linearGradient>
<linearGradient id="paint4_linear_5001_3781" x1="124.216" y1="3.26709" x2="124.835" y2="44.1526" gradientUnits="userSpaceOnUse">
<stop stop-color="#040515"/>
<stop offset="1"/>
</linearGradient>
<linearGradient id="paint5_linear_5001_3781" x1="124.216" y1="3.26709" x2="124.835" y2="44.1526" gradientUnits="userSpaceOnUse">
<stop stop-color="#040515"/>
<stop offset="1"/>
</linearGradient>
<linearGradient id="paint6_linear_5001_3781" x1="124.179" y1="34.897" x2="124.513" y2="65.0818" gradientUnits="userSpaceOnUse">
<stop stop-color="#040515"/>
<stop offset="1"/>
</linearGradient>
<linearGradient id="paint7_linear_5001_3781" x1="124.179" y1="34.897" x2="124.513" y2="65.0818" gradientUnits="userSpaceOnUse">
<stop stop-color="#040515"/>
<stop offset="1"/>
</linearGradient>
<linearGradient id="paint8_linear_5001_3781" x1="124.179" y1="34.897" x2="124.513" y2="65.0818" gradientUnits="userSpaceOnUse">
<stop stop-color="#040515"/>
<stop offset="1"/>
</linearGradient>
<linearGradient id="paint9_linear_5001_3781" x1="124.179" y1="34.897" x2="124.513" y2="65.0818" gradientUnits="userSpaceOnUse">
<stop stop-color="#040515"/>
<stop offset="1"/>
</linearGradient>
<linearGradient id="paint10_linear_5001_3781" x1="124.179" y1="34.897" x2="124.513" y2="65.0818" gradientUnits="userSpaceOnUse">
<stop stop-color="#040515"/>
<stop offset="1"/>
</linearGradient>
<linearGradient id="paint11_linear_5001_3781" x1="124.179" y1="34.897" x2="124.513" y2="65.0818" gradientUnits="userSpaceOnUse">
<stop stop-color="#040515"/>
<stop offset="1"/>
</linearGradient>
<linearGradient id="paint12_linear_5001_3781" x1="124.179" y1="34.897" x2="124.513" y2="65.0818" gradientUnits="userSpaceOnUse">
<stop stop-color="#040515"/>
<stop offset="1"/>
</linearGradient>
<linearGradient id="paint13_linear_5001_3781" x1="124.179" y1="34.897" x2="124.513" y2="65.0818" gradientUnits="userSpaceOnUse">
<stop stop-color="#040515"/>
<stop offset="1"/>
</linearGradient>
<linearGradient id="paint14_linear_5001_3781" x1="29.3572" y1="-1.02517" x2="31.41" y2="57.7608" gradientUnits="userSpaceOnUse">
<stop stop-color="#5924FF"/>
<stop offset="1" stop-color="#26106F"/>
</linearGradient>
<linearGradient id="paint15_linear_5001_3781" x1="26.8089" y1="17.2664" x2="27.1382" y2="71.3374" gradientUnits="userSpaceOnUse">
<stop stop-color="white"/>
<stop offset="1" stop-color="white" stop-opacity="0.65"/>
</linearGradient>
<linearGradient id="paint16_linear_5001_3781" x1="29.0345" y1="27.6434" x2="29.0825" y2="35.5336" gradientUnits="userSpaceOnUse">
<stop stop-color="white"/>
<stop offset="1" stop-color="white" stop-opacity="0.65"/>
</linearGradient>
</defs>
</svg>
