<svg width="1401" height="228" viewBox="0 0 1401 228" fill="none" xmlns="http://www.w3.org/2000/svg">
<circle cx="114" cy="114" r="114" fill="#22FF8D"/>
<path fill-rule="evenodd" clip-rule="evenodd" d="M82.3893 102.864L70 95.7089C70 113.65 70 131.59 70 149.537L82.5867 156.806C82.5867 138.841 82.3893 120.924 82.3893 102.864ZM70 81.2916C78.2974 86.0655 86.6067 90.8333 94.9161 95.5952L94.9161 163.895L103.614 168.914L107.305 171.043L107.305 88.4105C95.7835 81.8181 83.8071 74.9564 70 67L70 81.2976L70 81.2916ZM144.611 102.864L157 95.7089L157 110.012L157 123.389L157 149.537L144.407 156.806C144.407 138.841 144.611 120.924 144.611 102.864ZM157 81.2916C148.703 86.0655 140.393 90.8333 132.084 95.5952L132.084 163.895L123.386 168.914L119.695 171.043L119.695 88.4105C131.216 81.8181 143.193 74.9564 157 67L157 81.2976L157 81.2916Z" fill="white"/>
<path d="M307.966 190H286.651V29.469H307.966L363.253 164.466L418.539 29.469H440.299V190H418.983V126.498C418.983 100.742 419.428 83.3494 420.316 74.32L373.466 190H353.039L306.412 74.7641C307.448 82.0172 307.966 97.5596 307.966 121.391V190ZM467.465 176.678C456.807 166.02 451.479 152.328 451.479 135.602C451.479 118.875 456.807 105.183 467.465 94.5252C478.123 83.8675 491.667 78.5387 508.097 78.5387C524.38 78.5387 537.85 83.8675 548.508 94.5252C559.165 105.183 564.494 118.875 564.494 135.602C564.494 152.328 559.165 166.02 548.508 176.678C537.85 187.336 524.38 192.664 508.097 192.664C491.667 192.664 478.123 187.336 467.465 176.678ZM482.341 107.847C475.828 114.952 472.572 124.204 472.572 135.602C472.572 146.999 475.828 156.251 482.341 163.356C489.002 170.461 497.588 174.014 508.097 174.014C518.607 174.014 527.118 170.461 533.631 163.356C540.292 156.103 543.623 146.851 543.623 135.602C543.623 124.352 540.292 115.174 533.631 108.069C527.118 100.816 518.607 97.1896 508.097 97.1896C497.588 97.1896 489.002 100.742 482.341 107.847ZM603.806 192.664C592.261 192.664 583.157 189.704 576.496 183.783C569.983 177.714 566.727 169.721 566.727 159.803C566.727 149.886 570.205 141.967 577.162 136.046C584.267 129.977 594.259 126.424 607.137 125.388L641.33 122.724V119.615C641.33 103.184 632.819 94.9692 615.796 94.9692C607.063 94.9692 600.254 96.8195 595.369 100.52C590.632 104.221 588.264 109.327 588.264 115.84H570.057C570.057 104.591 574.276 95.5613 582.713 88.7522C591.298 81.7952 602.622 78.3166 616.684 78.3166C630.599 78.3166 641.552 82.0172 649.546 89.4184C657.687 96.8195 661.757 107.625 661.757 121.835V190H643.995L641.774 172.459C638.962 178.676 634.077 183.635 627.12 187.336C620.311 190.888 612.54 192.664 603.806 192.664ZM609.801 176.456C619.719 176.456 627.49 173.495 633.115 167.575C638.74 161.506 641.552 153.364 641.552 143.151V137.378L613.798 139.598C596.479 141.226 587.82 147.739 587.82 159.137C587.82 164.762 589.744 169.055 593.593 172.015C597.441 174.976 602.844 176.456 609.801 176.456ZM737.289 80.537V99.6319H727.964C718.046 99.6319 710.201 102.518 704.428 108.291C698.803 114.064 695.991 122.131 695.991 132.493V190H675.119V81.6471H694.658L695.991 98.0777C698.211 92.3048 701.986 87.7161 707.314 84.3116C712.643 80.907 718.934 79.2048 726.187 79.2048C729.444 79.2048 733.144 79.6488 737.289 80.537ZM811.36 190H790.045V29.469H811.36L866.647 164.466L921.933 29.469H943.693V190H922.377V126.498C922.377 100.742 922.821 83.3494 923.71 74.32L876.86 190H856.433L809.806 74.7641C810.842 82.0172 811.36 97.5596 811.36 121.391V190ZM993.729 192.664C982.183 192.664 973.079 189.704 966.418 183.783C959.905 177.714 956.649 169.721 956.649 159.803C956.649 149.886 960.127 141.967 967.084 136.046C974.19 129.977 984.181 126.424 997.059 125.388L1031.25 122.724V119.615C1031.25 103.184 1022.74 94.9692 1005.72 94.9692C996.985 94.9692 990.176 96.8195 985.291 100.52C980.555 104.221 978.186 109.327 978.186 115.84H959.979C959.979 104.591 964.198 95.5613 972.635 88.7522C981.221 81.7952 992.544 78.3166 1006.61 78.3166C1020.52 78.3166 1031.47 82.0172 1039.47 89.4184C1047.61 96.8195 1051.68 107.625 1051.68 121.835V190H1033.92L1031.7 172.459C1028.88 178.676 1024 183.635 1017.04 187.336C1010.23 190.888 1002.46 192.664 993.729 192.664ZM999.723 176.456C1009.64 176.456 1017.41 173.495 1023.04 167.575C1028.66 161.506 1031.47 153.364 1031.47 143.151V137.378L1003.72 139.598C986.401 141.226 977.742 147.739 977.742 159.137C977.742 164.762 979.666 169.055 983.515 172.015C987.364 174.976 992.766 176.456 999.723 176.456ZM1127.21 80.537V99.6319H1117.89C1107.97 99.6319 1100.12 102.518 1094.35 108.291C1088.73 114.064 1085.91 122.131 1085.91 132.493V190H1065.04V81.6471H1084.58L1085.91 98.0777C1088.13 92.3048 1091.91 87.7161 1097.24 84.3116C1102.57 80.907 1108.86 79.2048 1116.11 79.2048C1119.37 79.2048 1123.07 79.6488 1127.21 80.537ZM1152.56 190H1131.69V26.5826H1152.56V132.493L1200.74 81.4251H1226.94L1185.42 124.722L1226.72 190H1202.74L1170.99 139.82L1152.56 159.137V190ZM1271.18 192.664C1255.2 192.664 1242.17 187.41 1232.11 176.9C1222.19 166.39 1217.23 152.698 1217.23 135.824C1217.23 118.801 1222.11 104.961 1231.88 94.3031C1241.8 83.6455 1254.6 78.3166 1270.3 78.3166C1285.69 78.3166 1298.05 83.2014 1307.37 92.9709C1316.7 102.74 1321.36 115.692 1321.36 131.827V139.598L1237.43 139.82C1238.17 151.218 1241.43 160.025 1247.2 166.242C1253.12 172.311 1261.27 175.346 1271.63 175.346C1288.21 175.346 1298.35 168.981 1302.05 156.251H1321.59C1318.92 167.945 1313.22 176.974 1304.49 183.339C1295.76 189.556 1284.65 192.664 1271.18 192.664ZM1270.3 95.8574C1261.27 95.8574 1253.94 98.4478 1248.31 103.629C1242.69 108.809 1239.21 116.211 1237.88 125.832H1300.49C1300.49 116.803 1297.75 109.549 1292.28 104.073C1286.8 98.5958 1279.47 95.8574 1270.3 95.8574ZM1358.69 190H1337.82V98.9658H1316.5V81.4251H1337.82V47.4538H1358.69V81.4251H1380V98.9658H1358.69V190Z" fill="white"/>
</svg>
